<svg xmlns="http://www.w3.org/2000/svg" viewBox="0 0 800 620" role="img" aria-label="Cena lúdica com criança, trem e placas de metrô">
  <defs>
    <linearGradient id="bg" x1="0" y1="0" x2="1" y2="1">
      <stop offset="0%" stop-color="#6d28d9"/>
      <stop offset="100%" stop-color="#4338ca"/>
    </linearGradient>
    <linearGradient id="floor" x1="0" y1="0" x2="0" y2="1">
      <stop offset="0%" stop-color="#cad5ff"/>
      <stop offset="100%" stop-color="#9aa6d9"/>
    </linearGradient>
    <linearGradient id="trainBody" x1="0" y1="0" x2="1" y2="1">
      <stop offset="0%" stop-color="#f8fafc"/>
      <stop offset="100%" stop-color="#dbe4f6"/>
    </linearGradient>
  </defs>
  <rect width="800" height="620" rx="36" fill="url(#bg)"/>
  <circle cx="110" cy="94" r="28" fill="#facc15" opacity="0.8"/>
  <circle cx="678" cy="84" r="18" fill="#fb7185" opacity="0.75"/>
  <rect x="0" y="438" width="800" height="182" fill="url(#floor)"/>
  <rect x="70" y="130" width="660" height="48" rx="20" fill="#1f2937" opacity="0.4"/>
  <rect x="96" y="145" width="150" height="20" rx="10" fill="#facc15"/>
  <rect x="524" y="145" width="162" height="20" rx="10" fill="#22c55e"/>
  <text x="114" y="160" font-family="Arial" font-size="14" font-weight="700" fill="#1f2937">SÃO LUCAS</text>
  <text x="542" y="160" font-family="Arial" font-size="14" font-weight="700" fill="#052e16">PAULISTA</text>
  <rect x="92" y="208" width="454" height="172" rx="34" fill="url(#trainBody)"/>
  <rect x="110" y="228" width="418" height="136" rx="26" fill="#eef2ff" stroke="#c7d2fe" stroke-width="4"/>
  <rect x="116" y="194" width="128" height="22" rx="11" fill="#d1d5db"/>
  <rect x="258" y="194" width="132" height="22" rx="11" fill="#22c55e"/>
  <rect x="404" y="194" width="126" height="22" rx="11" fill="#facc15"/>
  <rect x="132" y="244" width="98" height="72" rx="14" fill="#93c5fd"/>
  <rect x="246" y="244" width="98" height="72" rx="14" fill="#93c5fd"/>
  <rect x="360" y="244" width="70" height="100" rx="10" fill="#cbd5e1"/>
  <rect x="444" y="244" width="70" height="100" rx="10" fill="#cbd5e1"/>
  <circle cx="160" cy="380" r="12" fill="#334155"/>
  <circle cx="468" cy="380" r="12" fill="#334155"/>
  <rect x="578" y="232" width="120" height="116" rx="18" fill="#ffffff" opacity="0.18"/>
  <rect x="596" y="250" width="86" height="22" rx="11" fill="#fff" opacity="0.8"/>
  <path d="M614 318h46" stroke="#fff" stroke-width="12" stroke-linecap="round"/>
  <path d="M644 294l24 24-24 24" fill="none" stroke="#fff" stroke-width="12" stroke-linecap="round" stroke-linejoin="round"/>
  <g transform="translate(548 352)">
    <circle cx="90" cy="88" r="48" fill="#f8d1b2"/>
    <rect x="58" y="138" width="68" height="102" rx="20" fill="#f472b6"/>
    <rect x="42" y="156" width="28" height="88" rx="12" fill="#f8d1b2"/>
    <rect x="110" y="156" width="28" height="88" rx="12" fill="#f8d1b2"/>
    <rect x="66" y="232" width="22" height="64" rx="11" fill="#1f2937"/>
    <rect x="96" y="232" width="22" height="64" rx="11" fill="#1f2937"/>
    <path d="M44 98c16-54 78-74 116-24-8-60-68-90-120-58-24 15-42 45-42 76 0 24 18 48 46 52V98z" fill="#111827"/>
    <circle cx="74" cy="84" r="6" fill="#111827"/>
    <circle cx="106" cy="84" r="6" fill="#111827"/>
    <path d="M76 108c8 10 20 10 28 0" fill="none" stroke="#ef4444" stroke-width="5" stroke-linecap="round"/>
    <rect x="26" y="190" width="32" height="22" rx="6" fill="#60a5fa"/>
  </g>
  <circle cx="188" cy="98" r="8" fill="#fff" opacity="0.6"/>
  <circle cx="214" cy="84" r="5" fill="#fff" opacity="0.7"/>
  <circle cx="638" cy="136" r="6" fill="#fff" opacity="0.65"/>
</svg>
