<svg xmlns="http://www.w3.org/2000/svg" viewBox="0 0 220 220">
  <defs>
    <linearGradient id="g1" x1="0" y1="0" x2="1" y2="1">
      <stop offset="0%" stop-color="#7c5cff"/>
      <stop offset="100%" stop-color="#12c2a9"/>
    </linearGradient>
    <linearGradient id="g2" x1="0" y1="0" x2="1" y2="1">
      <stop offset="0%" stop-color="#ffffff"/>
      <stop offset="100%" stop-color="#dff7ff"/>
    </linearGradient>
  </defs>
  <circle cx="110" cy="110" r="96" fill="url(#g1)"/>
  <circle cx="110" cy="110" r="78" fill="#10203c" opacity=".16"/>
  <rect x="54" y="56" width="112" height="84" rx="26" fill="url(#g2)"/>
  <rect x="67" y="73" width="86" height="45" rx="18" fill="#16213e"/>
  <circle cx="94" cy="96" r="8" fill="#7c5cff"/>
  <circle cx="126" cy="96" r="8" fill="#12c2a9"/>
  <rect x="86" y="126" width="48" height="8" rx="4" fill="#7c5cff"/>
  <circle cx="78" cy="150" r="10" fill="#16213e"/>
  <circle cx="142" cy="150" r="10" fill="#16213e"/>
  <path d="M72 56c2-16 14-28 30-28 8 0 16 3 22 8 6-5 14-8 22-8 16 0 28 12 30 28" fill="none" stroke="#e9fbff" stroke-width="10" stroke-linecap="round"/>
  <circle cx="66" cy="84" r="10" fill="#ffd666"/>
  <circle cx="154" cy="84" r="10" fill="#ffd666"/>
  <path d="M94 173c10 8 22 12 35 12s25-4 35-12" fill="none" stroke="#fff" stroke-width="8" stroke-linecap="round" opacity=".75"/>
</svg>