<svg xmlns="http://www.w3.org/2000/svg" viewBox="0 0 420 320" role="img" aria-label="Trem prata na estação São Lucas">
  <rect width="420" height="320" rx="30" fill="#201942"/>
  <rect x="0" y="228" width="420" height="92" fill="#a5b4fc" opacity="0.5"/>
  <rect x="28" y="42" width="154" height="34" rx="16" fill="#e5e7eb"/>
  <text x="48" y="64" font-family="Arial" font-size="18" font-weight="700" fill="#334155">São Lucas</text>
  <rect x="58" y="96" width="282" height="116" rx="26" fill="#f8fafc"/>
  <rect x="74" y="112" width="248" height="84" rx="20" fill="#dde6f9"/>
  <rect x="88" y="124" width="72" height="44" rx="10" fill="#93c5fd"/>
  <rect x="170" y="124" width="72" height="44" rx="10" fill="#93c5fd"/>
  <rect x="252" y="124" width="54" height="56" rx="8" fill="#cbd5e1"/>
  <rect x="60" y="84" width="88" height="12" rx="6" fill="#9ca3af"/>
  <circle cx="106" cy="214" r="10" fill="#111827"/>
  <circle cx="292" cy="214" r="10" fill="#111827"/>
  <rect x="288" y="44" width="96" height="92" rx="18" fill="#ffffff" opacity="0.14"/>
  <path d="M320 90h34" stroke="#fff" stroke-width="10" stroke-linecap="round"/>
  <path d="M342 74l18 18-18 18" fill="none" stroke="#fff" stroke-width="10" stroke-linecap="round" stroke-linejoin="round"/>
</svg>
